<svg width="289" height="133" viewBox="0 0 289 133" fill="none" xmlns="http://www.w3.org/2000/svg">
<path d="M68.6455 0.00133218C67.4612 -0.00535658 66.2669 0.0237519 65.0626 0.090305C46.3719 1.12442 29.1309 9.54778 17.0988 22.7158L26.0165 37.4223L42.6127 43.1144C48.6728 37.2866 57.1377 33.6276 66.8618 33.0896C67.1299 33.0746 67.4073 33.07 67.6936 33.0746C72.6917 33.1448 80.3976 36.0547 88.6188 40.6072L94.4501 23.3427L109.697 13.9566C97.6952 6.16625 84.0097 0.0865882 68.6455 0.00179146V0.00133218ZM220.355 0.00133218C202.771 0.0983192 187.385 8.04472 174.207 17.4248L190.029 26.499L196.194 43.0539C205.931 37.1279 215.47 33.1562 221.31 33.0741C221.596 33.0708 221.874 33.0748 222.142 33.0892C229.031 33.4703 235.283 35.4225 240.501 38.5971L256.589 29.4806L262.406 14.1034C251.523 5.93539 238.15 0.876176 223.937 0.0898457C222.733 0.0232926 221.539 -0.00562312 220.355 0.000898415V0.00133218ZM113.596 16.5814L97.9833 26.1939L92.3766 42.7921C97.5795 45.9299 102.853 49.6259 107.664 53.6136C113.25 58.2428 117.524 62.5007 121.51 66.4614C117.62 70.2788 113.519 74.3335 108.066 78.8167C104.664 81.6143 101.018 84.2998 97.3084 86.7675L112.374 96.063L118.032 112.862C121.818 110.076 125.412 107.214 128.803 104.426C134.786 99.5069 140.119 94.5937 144.5 90.3234C148.88 94.5938 154.214 99.5068 160.197 104.426C165.009 108.383 170.227 112.487 175.832 116.312L179.848 99.1419L194.105 88.3299C189.57 85.4517 185.072 82.2191 180.934 78.8167C175.481 74.3335 171.38 70.2788 167.49 66.4614C171.476 62.5004 175.749 58.2433 181.336 53.6136C184.881 50.6756 184.132 51.0236 187.966 48.5052L186.583 29.4612L166.214 23.3219C162.742 25.9361 163.645 25.4812 160.502 28.0864C154.407 33.1369 148.962 38.2056 144.5 42.6046C140.038 38.2057 134.592 33.1367 128.498 28.0864C123.886 24.2634 118.916 20.2934 113.596 16.5814V16.5814ZM265.901 16.9089L260.018 32.4597L244.368 41.3274C251.714 47.3235 256.199 56.1651 256.199 66.5305C256.199 74.1199 253.778 81.0377 249.647 86.5861L258.282 102.058L274.229 108.185C283.444 96.7887 289 82.303 289 66.5305C289 46.4256 279.916 28.9158 265.901 16.9089V16.9089ZM14.1797 26.13C5.35215 37.1904 0 51.0965 0 66.5305C1.65947e-06 86.9255 9.28651 105.171 23.7671 117.363L39.6679 107.572L44.8184 92.3248C37.4345 86.245 32.8006 77.0296 32.8006 66.5305C32.8006 58.8692 35.2531 52.0418 39.4972 46.5778L23.1865 40.9826L14.1797 26.13ZM88.7493 92.0678C78.4377 98.4062 72.6791 100.007 66.1063 99.9481C59.5682 99.8894 53.5314 98.0593 48.4407 94.9111L43.201 110.424L27.3543 120.179C38.2092 128.127 51.5154 132.868 65.8147 132.997C84.3394 133.163 95.3004 127.098 109.121 117.47L108.837 98.9103L88.7493 92.0678ZM246.687 90.0305C240.686 96.1135 232.307 99.8636 222.894 99.9481C216.816 100.003 207.537 96.2971 198.021 90.7278L183.637 101.634L179.622 118.811C192.307 126.887 206.863 133.143 223.185 132.997C242.051 132.827 259.189 124.631 271.246 111.628L255.328 105.513L246.687 90.0305Z" fill="url(#paint0_linear)"/>
<defs>
<linearGradient id="paint0_linear" x1="0" y1="66.5" x2="289" y2="66.5" gradientUnits="userSpaceOnUse">
<stop stop-color="#446AB1"/>
<stop offset="1" stop-color="#6B489E"/>
</linearGradient>
</defs>
</svg>
