<svg width="289" height="133" viewBox="0 0 289 133" fill="none" xmlns="http://www.w3.org/2000/svg">
<path d="M68.6455 0.00133218C67.4612 -0.00535658 66.2669 0.0237519 65.0626 0.090305C46.3719 1.12442 29.1309 9.54777 17.0988 22.7158L26.0165 37.4223L42.6127 43.1144C48.6728 37.2866 57.1377 33.6276 66.8618 33.0896C67.1299 33.0746 67.4073 33.07 67.6936 33.0746C72.6917 33.1448 80.3976 36.0547 88.6188 40.6072L94.4501 23.3427L109.697 13.9566C97.6952 6.16625 84.0097 0.0865882 68.6455 0.00179146V0.00133218ZM220.355 0.00133218C202.771 0.0983192 187.385 8.04472 174.207 17.4248L190.029 26.499L196.194 43.0539C205.931 37.1279 215.47 33.1562 221.31 33.0741C221.596 33.0708 221.874 33.0748 222.142 33.0892C229.031 33.4703 235.283 35.4225 240.501 38.5971L256.589 29.4806L262.406 14.1034C251.523 5.93539 238.15 0.876176 223.937 0.0898457C222.733 0.0232926 221.539 -0.00562312 220.355 0.000898415V0.00133218ZM113.596 16.5814L97.9833 26.1939L92.3766 42.7921C97.5795 45.9299 102.853 49.6259 107.664 53.6136C113.25 58.2428 117.524 62.5007 121.51 66.4614C117.62 70.2788 113.519 74.3335 108.066 78.8167C104.664 81.6143 101.018 84.2998 97.3084 86.7675L112.374 96.063L118.032 112.862C121.818 110.076 125.412 107.214 128.803 104.426C134.786 99.5069 140.119 94.5937 144.5 90.3234C148.88 94.5938 154.214 99.5068 160.197 104.426C165.009 108.383 170.227 112.487 175.832 116.312L179.848 99.1419L194.105 88.3299C189.57 85.4517 185.072 82.2191 180.934 78.8167C175.481 74.3335 171.38 70.2788 167.49 66.4614C171.476 62.5004 175.749 58.2433 181.336 53.6136C184.881 50.6756 184.132 51.0236 187.966 48.5052L186.583 29.4612L166.214 23.3219C162.742 25.9361 163.645 25.4812 160.502 28.0864C154.407 33.1369 148.962 38.2056 144.5 42.6046C140.038 38.2057 134.592 33.1367 128.498 28.0864C123.886 24.2634 118.916 20.2934 113.596 16.5814ZM265.901 16.9089L260.018 32.4597L244.368 41.3274C251.714 47.3235 256.199 56.1651 256.199 66.5305C256.199 74.1199 253.778 81.0377 249.647 86.5861L258.282 102.058L274.229 108.185C283.444 96.7887 289 82.303 289 66.5305C289 46.4256 279.916 28.9158 265.901 16.9089ZM14.1797 26.13C5.35215 37.1904 0 51.0965 0 66.5305C1.65947e-06 86.9255 9.28651 105.171 23.7671 117.363L39.6679 107.572L44.8184 92.3248C37.4345 86.245 32.8006 77.0296 32.8006 66.5305C32.8006 58.8692 35.2531 52.0418 39.4972 46.5778L23.1865 40.9826L14.1797 26.13ZM88.7493 92.0678C78.4377 98.4062 72.6791 100.007 66.1063 99.9481C59.5682 99.8894 53.5313 98.0593 48.4407 94.9111L43.201 110.424L27.3543 120.179C38.2092 128.127 51.5154 132.868 65.8147 132.997C84.3394 133.163 95.3004 127.098 109.121 117.47L108.837 98.9103L88.7493 92.0678ZM246.687 90.0305C240.686 96.1135 232.307 99.8636 222.894 99.9481C216.816 100.003 207.537 96.2971 198.021 90.7278L183.637 101.634L179.622 118.811C192.307 126.887 206.863 133.143 223.185 132.997C242.051 132.827 259.189 124.631 271.246 111.628L255.328 105.513L246.687 90.0305Z" fill="url(#paint0_linear)"/>
<path d="M50.88 59H57C58.4933 59 59.82 59.2933 60.98 59.88C62.14 60.4533 63.04 61.2733 63.68 62.34C64.32 63.3933 64.64 64.6133 64.64 66C64.64 67.3867 64.32 68.6133 63.68 69.68C63.04 70.7333 62.14 71.5533 60.98 72.14C59.82 72.7133 58.4933 73 57 73H50.88V59ZM56.88 70.8C57.9067 70.8 58.8067 70.6067 59.58 70.22C60.3667 69.82 60.9667 69.26 61.38 68.54C61.8067 67.8067 62.02 66.96 62.02 66C62.02 65.04 61.8067 64.2 61.38 63.48C60.9667 62.7467 60.3667 62.1867 59.58 61.8C58.8067 61.4 57.9067 61.2 56.88 61.2H53.48V70.8H56.88ZM77.2034 67.72C77.2034 67.8933 77.1901 68.14 77.1634 68.46H68.7834C68.9301 69.2467 69.3101 69.8733 69.9234 70.34C70.5501 70.7933 71.3234 71.02 72.2434 71.02C73.4168 71.02 74.3834 70.6333 75.1434 69.86L76.4834 71.4C76.0034 71.9733 75.3968 72.4067 74.6634 72.7C73.9301 72.9933 73.1034 73.14 72.1834 73.14C71.0101 73.14 69.9768 72.9067 69.0834 72.44C68.1901 71.9733 67.4968 71.3267 67.0034 70.5C66.5234 69.66 66.2834 68.7133 66.2834 67.66C66.2834 66.62 66.5168 65.6867 66.9834 64.86C67.4634 64.02 68.1234 63.3667 68.9634 62.9C69.8034 62.4333 70.7501 62.2 71.8034 62.2C72.8434 62.2 73.7701 62.4333 74.5834 62.9C75.4101 63.3533 76.0501 64 76.5034 64.84C76.9701 65.6667 77.2034 66.6267 77.2034 67.72ZM71.8034 64.2C71.0034 64.2 70.3234 64.44 69.7634 64.92C69.2168 65.3867 68.8834 66.0133 68.7634 66.8H74.8234C74.7168 66.0267 74.3901 65.4 73.8434 64.92C73.2968 64.44 72.6168 64.2 71.8034 64.2ZM89.4095 62.32L84.8295 73H82.2495L77.6695 62.32H80.2695L83.5895 70.24L87.0095 62.32H89.4095Z" fill="#446CB2"/>
<path d="M205.42 73.2C203.993 73.2 202.707 72.8933 201.56 72.28C200.413 71.6533 199.513 70.7933 198.86 69.7C198.207 68.5933 197.88 67.36 197.88 66C197.88 64.64 198.207 63.4133 198.86 62.32C199.513 61.2133 200.413 60.3533 201.56 59.74C202.707 59.1133 203.993 58.8 205.42 58.8C206.847 58.8 208.133 59.1133 209.28 59.74C210.427 60.3533 211.327 61.2067 211.98 62.3C212.633 63.3933 212.96 64.6267 212.96 66C212.96 67.3733 212.633 68.6067 211.98 69.7C211.327 70.7933 210.427 71.6533 209.28 72.28C208.133 72.8933 206.847 73.2 205.42 73.2ZM205.42 70.92C206.353 70.92 207.193 70.7133 207.94 70.3C208.687 69.8733 209.273 69.2867 209.7 68.54C210.127 67.78 210.34 66.9333 210.34 66C210.34 65.0667 210.127 64.2267 209.7 63.48C209.273 62.72 208.687 62.1333 207.94 61.72C207.193 61.2933 206.353 61.08 205.42 61.08C204.487 61.08 203.647 61.2933 202.9 61.72C202.153 62.1333 201.567 62.72 201.14 63.48C200.713 64.2267 200.5 65.0667 200.5 66C200.5 66.9333 200.713 67.78 201.14 68.54C201.567 69.2867 202.153 69.8733 202.9 70.3C203.647 70.7133 204.487 70.92 205.42 70.92ZM221.396 62.2C222.436 62.2 223.363 62.4267 224.176 62.88C225.003 63.3333 225.649 63.9733 226.116 64.8C226.583 65.6267 226.816 66.58 226.816 67.66C226.816 68.74 226.583 69.7 226.116 70.54C225.649 71.3667 225.003 72.0067 224.176 72.46C223.363 72.9133 222.436 73.14 221.396 73.14C219.956 73.14 218.816 72.66 217.976 71.7V76.88H215.476V62.32H217.856V63.72C218.269 63.2133 218.776 62.8333 219.376 62.58C219.989 62.3267 220.663 62.2 221.396 62.2ZM221.116 71C222.036 71 222.789 70.6933 223.376 70.08C223.976 69.4667 224.276 68.66 224.276 67.66C224.276 66.66 223.976 65.8533 223.376 65.24C222.789 64.6267 222.036 64.32 221.116 64.32C220.516 64.32 219.976 64.46 219.496 64.74C219.016 65.0067 218.636 65.3933 218.356 65.9C218.076 66.4067 217.936 66.9933 217.936 67.66C217.936 68.3267 218.076 68.9133 218.356 69.42C218.636 69.9267 219.016 70.32 219.496 70.6C219.976 70.8667 220.516 71 221.116 71ZM232.487 73.14C231.62 73.14 230.774 73.0267 229.947 72.8C229.12 72.5733 228.46 72.2867 227.967 71.94L228.927 70.04C229.407 70.36 229.98 70.62 230.647 70.82C231.327 71.0067 231.994 71.1 232.647 71.1C234.14 71.1 234.887 70.7067 234.887 69.92C234.887 69.5467 234.694 69.2867 234.307 69.14C233.934 68.9933 233.327 68.8533 232.487 68.72C231.607 68.5867 230.887 68.4333 230.327 68.26C229.78 68.0867 229.3 67.7867 228.887 67.36C228.487 66.92 228.287 66.3133 228.287 65.54C228.287 64.5267 228.707 63.72 229.547 63.12C230.4 62.5067 231.547 62.2 232.987 62.2C233.72 62.2 234.454 62.2867 235.187 62.46C235.92 62.62 236.52 62.84 236.987 63.12L236.027 65.02C235.12 64.4867 234.1 64.22 232.967 64.22C232.234 64.22 231.674 64.3333 231.287 64.56C230.914 64.7733 230.727 65.06 230.727 65.42C230.727 65.82 230.927 66.1067 231.327 66.28C231.74 66.44 232.374 66.5933 233.227 66.74C234.08 66.8733 234.78 67.0267 235.327 67.2C235.874 67.3733 236.34 67.6667 236.727 68.08C237.127 68.4933 237.327 69.08 237.327 69.84C237.327 70.84 236.894 71.64 236.027 72.24C235.16 72.84 233.98 73.14 232.487 73.14Z" fill="#6A4A9F"/>
<defs>
<linearGradient id="paint0_linear" x1="0" y1="66.5" x2="289" y2="66.5" gradientUnits="userSpaceOnUse">
<stop stop-color="#446AB1"/>
<stop offset="1" stop-color="#6B489E"/>
</linearGradient>
</defs>
</svg>
