<svg viewBox="0 0 25 25" fill="none" xmlns="http://www.w3.org/2000/svg"><g clip-path="url(#clip0)" fill="#446CB2"><path d="M24.145 6.765L17.774.147A.48.48 0 0017.43 0H7.936A1.928 1.928 0 006.01 1.926v6.728H2.163c-.795 0-1.442.646-1.442 1.44v7.215c0 .795.647 1.441 1.442 1.441H6.01v4.328c0 1.06.864 1.922 1.926 1.922h14.416a1.926 1.926 0 001.927-1.921V7.099a.48.48 0 00-.134-.334zm-6.597-5.467l5.229 5.433h-5.229V1.298zM2.163 17.788a.48.48 0 01-.48-.479v-7.214a.48.48 0 01.48-.48h12.982a.48.48 0 01.48.48v7.214a.48.48 0 01-.48.48H2.163zm21.154 5.29c0 .53-.433.96-.965.96H7.936a.964.964 0 01-.965-.96V18.75h8.174c.795 0 1.442-.646 1.442-1.441v-7.214c0-.795-.647-1.441-1.442-1.441H6.971V1.926c0-.532.433-.964.965-.964h8.65v6.25c0 .265.216.48.481.48h6.25V23.08z"/><path d="M13.899 14.005a1.16 1.16 0 00-.457-.42c-.194-.102-.494-.201-.9-.297-.405-.096-.66-.188-.766-.276a.317.317 0 01-.124-.25.3.3 0 01.133-.257c.137-.1.326-.15.569-.15.234 0 .41.047.528.14.117.093.194.245.23.458l.833-.037c-.013-.38-.15-.683-.412-.91-.263-.227-.653-.34-1.17-.34-.318 0-.59.047-.814.143a1.12 1.12 0 00-.515.418c-.12.183-.18.38-.18.59 0 .327.128.604.381.832.18.16.494.297.941.408.348.086.57.146.668.18.143.05.242.11.3.179a.376.376 0 01.086.25.507.507 0 01-.205.398c-.136.114-.338.17-.607.17-.253 0-.455-.063-.604-.191-.15-.128-.248-.328-.297-.6l-.811.079c.054.462.221.813.501 1.055.28.24.68.362 1.203.362.359 0 .658-.05.899-.151a1.215 1.215 0 00.755-1.125c0-.261-.056-.48-.165-.658zM8.25 15.17v-3.4h-.834v4.095h2.907v-.696H8.249zM5.553 13.741l1.285-2.005h-.966l-.812 1.326-.828-1.326h-.975l1.28 1.974-1.412 2.155h1l.918-1.428.916 1.428h1.006l-1.412-2.124z"/></g><defs><clipPath id="clip0"><path fill="#fff" d="M0 0h24.316v25H0z"/></clipPath></defs></svg>