<svg width="98" height="96" viewBox="0 0 98 96" fill="none" xmlns="http://www.w3.org/2000/svg"><g clip-path="url(#clip0)" fill="#fff"><path d="M90.972 96H7.013L0 88.893v-5.28h38.91l3.062 3.097h14.041l3.063-3.097H98v5.28L90.972 96zM8.284 92.903h81.417l5.237-5.295v-.898H60.346l-3.063 3.096H40.701l-3.063-3.096H3.063v.898l5.221 5.295zM44.406 77.42h-3.062v3.096h3.062V77.42zM38.281 77.42H35.22v3.096h3.062V77.42zM50.531 77.42H47.47v3.096h3.062V77.42zM56.656 77.42h-3.062v3.096h3.062V77.42zM62.781 77.42H59.72v3.096h3.062V77.42zM50.531 74.323H47.47V18.58h35.218v3.096H50.532v52.645zM44.406 6.194h-3.062V0h35.218v3.097H44.407v3.097zM44.406 15.484h-3.062v58.839h3.062v-58.84z"/><path d="M62.781 74.323H59.72V49.548h9.187v3.097h-6.125v21.678zM56.656 15.484h-3.062v-3.097H21.437V9.29h35.22v6.194zM56.656 24.774h-3.062v49.549h3.062V24.774zM38.281 74.323H35.22V46.452H18.375v-3.097h19.906v30.968zM12.25 9.29H9.187v3.097h3.063V9.29zM18.375 9.29h-3.063v3.097h3.063V9.29zM82.688 0h-3.063v3.097h3.063V0zM88.813 0H85.75v3.097h3.063V0z"/></g><defs><clipPath id="clip0"><path fill="#fff" d="M0 0h98v96H0z"/></clipPath></defs></svg>