<?xml version="1.0" encoding="utf-8"?><svg viewBox="0 0 16 16" xmlns="http://www.w3.org/2000/svg" xmlns:xlink="http://www.w3.org/1999/xlink"><style>:root>svg{display:none}:root>svg:target{display:block}</style><svg viewBox="0 0 16 16" id="login" xmlns="http://www.w3.org/2000/svg"><path d="M8 8c2.21 0 4-1.79 4-4s-1.79-4-4-4-4 1.79-4 4 1.79 4 4 4zm0 2c-2.67 0-8 1.34-8 4v2h16v-2c0-2.66-5.33-4-8-4z"/></svg><svg viewBox="0 0 12 12" id="phone" xmlns="http://www.w3.org/2000/svg"><path d="M11.333 8.333a7.573 7.573 0 01-2.38-.38.68.68 0 00-.68.16L6.807 9.58a10.03 10.03 0 01-4.394-4.393L3.88 3.713a.64.64 0 00.167-.666 7.574 7.574 0 01-.38-2.38C3.667.3 3.367 0 3 0H.667C.3 0 0 .3 0 .667 0 6.927 5.073 12 11.333 12c.367 0 .667-.3.667-.667V9c0-.367-.3-.667-.667-.667zM10.667 6H12a6 6 0 00-6-6v1.333A4.663 4.663 0 0110.667 6zM8 6h1.333A3.335 3.335 0 006 2.667V4c1.107 0 2 .893 2 2z"/></svg></svg>