<?xml version="1.0" encoding="utf-8"?><svg viewBox="0 0 576 512" xmlns="http://www.w3.org/2000/svg" xmlns:xlink="http://www.w3.org/1999/xlink"><style>:root>svg{display:none}:root>svg:target{display:block}</style><svg viewBox="0 0 18 12" id="arrow-right" xmlns="http://www.w3.org/2000/svg"><path d="M0 7h14.17l-3.58 3.59L12 12l6-6-6-6-1.41 1.41L14.17 5H0v2z"/></svg><svg viewBox="0 0 21 18" fill="none" id="bar" xmlns="http://www.w3.org/2000/svg"><path d="M0 18h21v-3H0v3zm0-7.5h21v-3H0v3zM0 0v3h21V0H0z" fill="#446CB2"/></svg><svg viewBox="0 0 12 20" id="chevron-left" xmlns="http://www.w3.org/2000/svg"><path d="M12 1.77L10.23 0l-10 10 10 10L12 18.23 3.77 10 12 1.77z"/></svg><svg viewBox="0 0 12 20" id="chevron-right" xmlns="http://www.w3.org/2000/svg"><path d="M0 18.23L1.77 20l10-10-10-10L0 1.77 8.23 10 0 18.23z"/></svg><svg viewBox="0 0 20 20" fill="none" id="clock" xmlns="http://www.w3.org/2000/svg"><path d="M10 0C4.486 0 0 4.486 0 10s4.486 10 10 10 10-4.486 10-10S15.514 0 10 0zm0 18.75c-4.825 0-8.75-3.925-8.75-8.75S5.175 1.25 10 1.25s8.75 3.925 8.75 8.75-3.925 8.75-8.75 8.75z" fill="#BEBFCF"/><path d="M10.625 3.75h-1.25v6.509l3.933 3.933.884-.884-3.567-3.567V3.75z" fill="#BEBFCF"/></svg><svg viewBox="0 0 14 17" id="download" xmlns="http://www.w3.org/2000/svg"><path d="M0 17h14v-2H0v2zM14 6h-4V0H4v6H0l7 7 7-7z"/></svg><svg viewBox="0 0 448 512" id="facebook-square" xmlns="http://www.w3.org/2000/svg"><path d="M400 32H48A48 48 0 000 80v352a48 48 0 0048 48h137.25V327.69h-63V256h63v-54.64c0-62.15 37-96.48 93.67-96.48 27.14 0 55.52 4.84 55.52 4.84v61h-31.27c-30.81 0-40.42 19.12-40.42 38.73V256h68.78l-11 71.69h-57.78V480H400a48 48 0 0048-48V80a48 48 0 00-48-48z"/></svg><svg viewBox="0 0 448 512" id="linkedin" xmlns="http://www.w3.org/2000/svg"><path d="M416 32H31.9C14.3 32 0 46.5 0 64.3v383.4C0 465.5 14.3 480 31.9 480H416c17.6 0 32-14.5 32-32.3V64.3c0-17.8-14.4-32.3-32-32.3zM135.4 416H69V202.2h66.5V416zm-33.2-243c-21.3 0-38.5-17.3-38.5-38.5S80.9 96 102.2 96c21.2 0 38.5 17.3 38.5 38.5 0 21.3-17.2 38.5-38.5 38.5zm282.1 243h-66.4V312c0-24.8-.5-56.7-34.5-56.7-34.6 0-39.9 27-39.9 54.9V416h-66.4V202.2h63.7v29.2h.9c8.9-16.8 30.6-34.5 62.9-34.5 67.2 0 79.7 44.3 79.7 101.9V416z"/></svg><svg viewBox="0 0 16 16" id="login" xmlns="http://www.w3.org/2000/svg"><path d="M8 8c2.21 0 4-1.79 4-4s-1.79-4-4-4-4 1.79-4 4 1.79 4 4 4zm0 2c-2.67 0-8 1.34-8 4v2h16v-2c0-2.66-5.33-4-8-4z"/></svg><svg viewBox="0 0 25 25" id="loupe" xmlns="http://www.w3.org/2000/svg"><path d="M17.867 15.723h-1.129l-.4-.386a9.25 9.25 0 002.244-6.046A9.29 9.29 0 009.291 0 9.29 9.29 0 000 9.291a9.29 9.29 0 009.291 9.291 9.25 9.25 0 006.046-2.244l.386.4v1.13L22.87 25 25 22.87l-7.133-7.147zm-8.576 0a6.424 6.424 0 01-6.432-6.432A6.424 6.424 0 019.29 2.859a6.424 6.424 0 016.432 6.432 6.424 6.424 0 01-6.432 6.432z"/></svg><svg viewBox="0 0 20 16" id="mail" xmlns="http://www.w3.org/2000/svg"><path d="M18 0H2C.9 0 .01.9.01 2L0 14c0 1.1.9 2 2 2h16c1.1 0 2-.9 2-2V2c0-1.1-.9-2-2-2zm0 4l-8 5-8-5V2l8 5 8-5v2z"/></svg><svg viewBox="0 0 98 96" fill="none" id="notebook" xmlns="http://www.w3.org/2000/svg"><g clip-path="url(#lclip0)" fill="#fff"><path d="M90.972 96H7.013L0 88.893v-5.28h38.91l3.062 3.097h14.041l3.063-3.097H98v5.28L90.972 96zM8.284 92.903h81.417l5.237-5.295v-.898H60.346l-3.063 3.097H40.701l-3.063-3.097H3.063v.898l5.221 5.295zM44.406 77.42h-3.062v3.096h3.062V77.42zm-6.125 0H35.22v3.096h3.062V77.42zm12.25 0H47.47v3.096h3.062V77.42zm6.125 0h-3.062v3.096h3.062V77.42zm6.125 0H59.72v3.096h3.062V77.42zm-12.25-3.097H47.47V18.58h35.218v3.096H50.532v52.646zM44.406 6.194h-3.062V0h35.218v3.097H44.407v3.097zm0 9.29h-3.062v58.839h3.062v-58.84z"/><path d="M62.781 74.323H59.72V49.548h9.187v3.097h-6.125v21.678zm-6.125-58.839h-3.062v-3.097H21.437V9.29h35.22v6.194zm0 9.29h-3.062v49.549h3.062V24.774zM38.281 74.323H35.22V46.452H18.375v-3.097h19.906v30.968zM12.25 9.29H9.187v3.097h3.063V9.29zm6.125 0h-3.063v3.097h3.063V9.29zM82.688 0h-3.063v3.097h3.063V0zm6.125 0H85.75v3.097h3.063V0z"/><path d="M88.813 80.516h-22.97V77.42H85.75V37.161c0-.821-.323-1.609-.897-2.19a3.045 3.045 0 00-2.165-.906H15.311c-.812 0-1.59.326-2.165.907a3.114 3.114 0 00-.897 2.19v40.257h19.906v3.097H9.188V37.161c0-1.642.645-3.218 1.793-4.38a6.09 6.09 0 014.332-1.813h67.374a6.09 6.09 0 014.332 1.814 6.229 6.229 0 011.793 4.38v43.354z"/></g><defs><clipPath id="lclip0"><path fill="#fff" d="M0 0h98v96H0z"/></clipPath></defs></svg><svg fill="none" viewBox="0 0 98 96" id="notebook-2" xmlns="http://www.w3.org/2000/svg"><g clip-path="url(#mclip0)" fill="#fff"><path d="M90.972 96H7.013L0 88.893v-5.28h38.91l3.062 3.097h14.041l3.063-3.097H98v5.28L90.972 96zM8.284 92.903h81.417l5.237-5.295v-.898H60.346l-3.063 3.096H40.701l-3.063-3.096H3.063v.898l5.221 5.295zM44.406 77.42h-3.062v3.096h3.062V77.42zm-6.125 0H35.22v3.096h3.062V77.42zm12.25 0H47.47v3.096h3.062V77.42zm6.125 0h-3.062v3.096h3.062V77.42zm6.125 0H59.72v3.096h3.062V77.42zm-12.25-3.097H47.47V18.58h35.218v3.096H50.532v52.645zM44.406 6.194h-3.062V0h35.218v3.097H44.407v3.097zm0 9.29h-3.062v58.839h3.062v-58.84z"/><path d="M62.781 74.323H59.72V49.548h9.187v3.097h-6.125v21.678zm-6.125-58.839h-3.062v-3.097H21.437V9.29h35.22v6.194zm0 9.29h-3.062v49.549h3.062V24.774zM38.281 74.323H35.22V46.452H18.375v-3.097h19.906v30.968zM12.25 9.29H9.187v3.097h3.063V9.29zm6.125 0h-3.063v3.097h3.063V9.29zM82.688 0h-3.063v3.097h3.063V0zm6.125 0H85.75v3.097h3.063V0z"/></g><defs><clipPath id="mclip0"><path fill="#fff" d="M0 0h98v96H0z"/></clipPath></defs></svg><svg viewBox="0 0 12 12" id="phone" xmlns="http://www.w3.org/2000/svg"><path d="M11.333 8.333a7.573 7.573 0 01-2.38-.38.68.68 0 00-.68.16L6.807 9.58a10.03 10.03 0 01-4.394-4.393L3.88 3.713a.64.64 0 00.167-.666 7.574 7.574 0 01-.38-2.38C3.667.3 3.367 0 3 0H.667C.3 0 0 .3 0 .667 0 6.927 5.073 12 11.333 12c.367 0 .667-.3.667-.667V9c0-.367-.3-.667-.667-.667zM10.667 6H12a6 6 0 00-6-6v1.333A4.663 4.663 0 0110.667 6zM8 6h1.333A3.335 3.335 0 006 2.667V4c1.107 0 2 .893 2 2z"/></svg><svg viewBox="0 0 14 20" id="pin" xmlns="http://www.w3.org/2000/svg"><path d="M7 0C3.13 0 0 3.13 0 7c0 5.25 7 13 7 13s7-7.75 7-13c0-3.87-3.13-7-7-7zm0 9.5a2.5 2.5 0 010-5 2.5 2.5 0 010 5z"/></svg><svg viewBox="0 0 91 91" fill="none" id="sphere" xmlns="http://www.w3.org/2000/svg"><g clip-path="url(#pclip0)" fill="#fff"><path d="M62.248 81.099L49.45 83.941l.616 2.776 12.798-2.842-.616-2.776zm21.683-31.681l-2.848 11.38 2.759.69 2.848-11.38-2.759-.69zM46.922 69.672h-2.844v11.375h2.844V69.672zM45.5 51.188a5.688 5.688 0 110-11.376 5.688 5.688 0 010 11.376zm0-8.532a2.844 2.844 0 100 5.688 2.844 2.844 0 000-5.688zm0-11.375a5.687 5.687 0 110-11.374 5.687 5.687 0 010 11.374zm0-8.531a2.844 2.844 0 100 5.688 2.844 2.844 0 000-5.688zm0-11.375a5.688 5.688 0 110-11.376 5.688 5.688 0 010 11.376zm0-8.531a2.844 2.844 0 100 5.688 2.844 2.844 0 000-5.688z"/><path d="M45.5 71.094a5.687 5.687 0 110-11.374 5.687 5.687 0 010 11.374zm0-8.531a2.844 2.844 0 100 5.687 2.844 2.844 0 000-5.688zM45.5 91a5.688 5.688 0 110-11.376A5.688 5.688 0 0145.5 91zm0-8.531a2.844 2.844 0 100 5.687 2.844 2.844 0 000-5.687zM27.016 39.813a5.688 5.688 0 110-11.376 5.688 5.688 0 010 11.375zm0-8.532a2.844 2.844 0 100 5.688 2.844 2.844 0 000-5.688zm36.968 8.532a5.688 5.688 0 110-11.376 5.688 5.688 0 010 11.375zm0-8.532a2.843 2.843 0 100 5.687 2.843 2.843 0 000-5.687zm17.063 39.813a5.687 5.687 0 110-11.374 5.687 5.687 0 010 11.374zm0-8.531a2.843 2.843 0 100 5.686 2.843 2.843 0 000-5.686zM66.828 86.734a5.688 5.688 0 110-11.375 5.688 5.688 0 010 11.375zm0-8.53a2.844 2.844 0 100 5.687 2.844 2.844 0 000-5.688zM27.016 62.563a5.688 5.688 0 110-11.376 5.688 5.688 0 010 11.376zm0-8.532a2.844 2.844 0 100 5.688 2.844 2.844 0 000-5.688zm36.968 8.532a5.688 5.688 0 110-11.376 5.688 5.688 0 010 11.376zm0-8.532a2.843 2.843 0 100 5.687 2.843 2.843 0 000-5.687zM32.703 19.906H29.86v2.844h2.844v-2.844zm0 48.344H29.86v2.844h2.844V68.25zm28.437 0h-2.843v2.844h2.844V68.25zM19.906 44.078h-2.843v2.844h2.843v-2.844zM61.14 19.906h-2.843v2.844h2.844v-2.844zm12.798 24.172h-2.844v2.844h2.844v-2.844z"/><path d="M77.137 67.318l-8.535 9.95 2.158 1.852 8.535-9.95-2.158-1.852zM50.08 4.298l-.616 2.776 12.797 2.844.617-2.776-12.797-2.844zm33.779 25.206l-2.759.69 2.846 11.38 2.759-.69-2.846-11.38z"/><path d="M81.047 31.281a5.687 5.687 0 110-11.374 5.687 5.687 0 010 11.374zm0-8.531a2.843 2.843 0 100 5.687 2.843 2.843 0 000-5.687zm-14.219-7.11a5.687 5.687 0 110-11.373 5.687 5.687 0 010 11.374zm0-8.53a2.844 2.844 0 100 5.687 2.844 2.844 0 000-5.688zm18.485 44.078a5.688 5.688 0 110-11.376 5.688 5.688 0 010 11.376zm0-8.532a2.844 2.844 0 100 5.688 2.844 2.844 0 000-5.688z"/><path d="M70.76 11.875l-2.159 1.85 8.531 9.954 2.16-1.85-8.532-9.954zM28.752 81.077l-.617 2.776 12.798 2.844.617-2.776-12.798-2.844zM7.077 49.413l-2.759.69 2.846 11.38 2.759-.69-2.846-11.38z"/><path d="M9.953 71.094a5.687 5.687 0 110-11.374 5.687 5.687 0 010 11.374zm0-8.531a2.844 2.844 0 100 5.687 2.844 2.844 0 000-5.688zm14.219 24.171a5.688 5.688 0 110-11.375 5.688 5.688 0 010 11.375zm0-8.53a2.843 2.843 0 100 5.686 2.843 2.843 0 000-5.687z"/><path d="M13.884 67.331l-2.159 1.851 8.532 9.954 2.159-1.85-8.532-9.955zM40.935 4.312L28.137 7.154l.616 2.776 12.798-2.842-.616-2.776zM7.163 29.52L4.315 40.9l2.759.69 2.848-11.38-2.759-.69z"/><path d="M9.953 31.281a5.687 5.687 0 110-11.374 5.687 5.687 0 010 11.374zm0-8.531a2.844 2.844 0 100 5.687 2.844 2.844 0 000-5.687zm14.219-7.11a5.687 5.687 0 110-11.373 5.687 5.687 0 010 11.374zm0-8.53a2.844 2.844 0 100 5.686 2.844 2.844 0 000-5.687zM5.688 51.188a5.688 5.688 0 110-11.376 5.688 5.688 0 010 11.376zm0-8.532a2.844 2.844 0 100 5.687 2.844 2.844 0 000-5.687z"/><path d="M20.256 11.866l-8.535 9.951 2.158 1.852 8.535-9.951-2.158-1.852zm11.729 46.601l-1.41 2.47 9.95 5.685 1.41-2.47-9.95-5.685zM28.438 38.39h-2.844v14.22h2.843V38.39zm3.19-2.325l-1.65 2.303 9.905 7.092 1.65-2.303-9.905-7.092zm26.696-.525l-9.904 7.092 1.649 2.304 9.905-7.093-1.65-2.303zM46.922 9.953h-2.844v11.375h2.844V9.953zm3.411 15.75l-1.12 2.614 9.958 4.268 1.12-2.614-9.958-4.268zm8.681 32.795l-9.951 5.686 1.41 2.469 9.952-5.685-1.411-2.47zm9.874-.036l-1.272 2.544 8.534 4.267 1.272-2.543-8.534-4.268zm-46.767-.02l-8.533 4.267 1.272 2.544 8.533-4.268-1.272-2.543zM65.406 38.39h-2.844v14.22h2.844V38.39zM14.852 27.176l-1.272 2.543 8.533 4.268 1.272-2.544-8.533-4.267z"/></g><defs><clipPath id="pclip0"><path fill="#fff" d="M0 0h91v91H0z"/></clipPath></defs></svg><svg viewBox="0 0 7 10" id="triangle-right" xmlns="http://www.w3.org/2000/svg"><path d="M0 10l7-5-7-5v10z"/></svg><svg viewBox="0 0 448 512" id="twitter-square" xmlns="http://www.w3.org/2000/svg"><path d="M400 32H48C21.5 32 0 53.5 0 80v352c0 26.5 21.5 48 48 48h352c26.5 0 48-21.5 48-48V80c0-26.5-21.5-48-48-48zm-48.9 158.8c.2 2.8.2 5.7.2 8.5 0 86.7-66 186.6-186.6 186.6-37.2 0-71.7-10.8-100.7-29.4 5.3.6 10.4.8 15.8.8 30.7 0 58.9-10.4 81.4-28-28.8-.6-53-19.5-61.3-45.5 10.1 1.5 19.2 1.5 29.6-1.2-30-6.1-52.5-32.5-52.5-64.4v-.8c8.7 4.9 18.9 7.9 29.6 8.3a65.447 65.447 0 01-29.2-54.6c0-12.2 3.2-23.4 8.9-33.1 32.3 39.8 80.8 65.8 135.2 68.6-9.3-44.5 24-80.6 64-80.6 18.9 0 35.9 7.9 47.9 20.7 14.8-2.8 29-8.3 41.6-15.8-4.9 15.2-15.2 28-28.8 36.1 13.2-1.4 26-5.1 37.8-10.2-8.9 13.1-20.1 24.7-32.9 34z"/></svg><svg viewBox="0 0 576 512" id="youtube" xmlns="http://www.w3.org/2000/svg"><path d="M549.655 124.083c-6.281-23.65-24.787-42.276-48.284-48.597C458.781 64 288 64 288 64S117.22 64 74.629 75.486c-23.497 6.322-42.003 24.947-48.284 48.597-11.412 42.867-11.412 132.305-11.412 132.305s0 89.438 11.412 132.305c6.281 23.65 24.787 41.5 48.284 47.821C117.22 448 288 448 288 448s170.78 0 213.371-11.486c23.497-6.321 42.003-24.171 48.284-47.821 11.412-42.867 11.412-132.305 11.412-132.305s0-89.438-11.412-132.305zm-317.51 213.508V175.185l142.739 81.205-142.739 81.201z"/></svg></svg>