<svg width="33" height="20" viewBox="0 0 33 20" fill="none" xmlns="http://www.w3.org/2000/svg">
    <g clip-path="url(#clip0_1316:215)">
    <path d="M16.4949 -0.0189209C10.1919 -0.0189209 4.47592 3.49311 0.258129 9.19758C-0.086043 9.66494 -0.086043 10.3179 0.258129 10.7852C4.47592 16.4966 10.1919 20.0086 16.4949 20.0086C22.798 20.0086 28.514 16.4966 32.7318 10.7921C33.0759 10.3247 33.0759 9.67181 32.7318 9.20446C28.514 3.49311 22.798 -0.0189209 16.4949 -0.0189209ZM16.9471 17.0464C12.763 17.3144 9.30782 13.8024 9.57101 9.53435C9.78696 6.01545 12.5876 3.16321 16.0428 2.94328C20.2268 2.67524 23.6821 6.18727 23.4189 10.4553C23.1962 13.9673 20.3956 16.8196 16.9471 17.0464ZM16.7379 13.7887C14.4839 13.933 12.6213 12.0429 12.7698 9.74741C12.8845 7.8505 14.3962 6.31786 16.2587 6.19414C18.5127 6.04981 20.3753 7.93985 20.2268 10.2354C20.1054 12.1392 18.5937 13.6718 16.7379 13.7887Z" fill="#446CB2"/>
    </g>
    <defs>
    <clipPath id="clip0_1316:215">
    <rect width="33" height="20" fill="white"/>
    </clipPath>
    </defs>
    </svg>
