<svg viewBox="0 0 91 91" fill="none" xmlns="http://www.w3.org/2000/svg"><g clip-path="url(#clip0)" fill="#fff"><path d="M62.248 81.099L49.45 83.941l.616 2.776 12.798-2.842-.616-2.776zM83.931 49.418l-2.848 11.38 2.759.69 2.848-11.38-2.759-.69zM46.922 69.672h-2.844v11.375h2.844V69.672zM45.5 51.188a5.688 5.688 0 110-11.376 5.688 5.688 0 010 11.376zm0-8.532a2.844 2.844 0 100 5.688 2.844 2.844 0 000-5.688zM45.5 31.281a5.687 5.687 0 110-11.374 5.687 5.687 0 010 11.374zm0-8.531a2.844 2.844 0 100 5.688 2.844 2.844 0 000-5.688zM45.5 11.375a5.688 5.688 0 110-11.376 5.688 5.688 0 010 11.376zm0-8.531a2.844 2.844 0 100 5.688 2.844 2.844 0 000-5.688z"/><path d="M45.5 71.094a5.687 5.687 0 110-11.374 5.687 5.687 0 010 11.374zm0-8.531a2.844 2.844 0 100 5.687 2.844 2.844 0 000-5.688zM45.5 91a5.688 5.688 0 110-11.376A5.688 5.688 0 0145.5 91zm0-8.531a2.844 2.844 0 100 5.687 2.844 2.844 0 000-5.687zM27.016 39.813a5.688 5.688 0 110-11.376 5.688 5.688 0 010 11.375zm0-8.532a2.844 2.844 0 100 5.688 2.844 2.844 0 000-5.688zM63.984 39.813a5.688 5.688 0 110-11.376 5.688 5.688 0 010 11.375zm0-8.532a2.843 2.843 0 100 5.687 2.843 2.843 0 000-5.687zM81.047 71.094a5.687 5.687 0 110-11.374 5.687 5.687 0 010 11.374zm0-8.531a2.843 2.843 0 100 5.686 2.843 2.843 0 000-5.686zM66.828 86.734a5.688 5.688 0 110-11.375 5.688 5.688 0 010 11.375zm0-8.53a2.844 2.844 0 100 5.687 2.844 2.844 0 000-5.688zM27.016 62.563a5.688 5.688 0 110-11.376 5.688 5.688 0 010 11.376zm0-8.532a2.844 2.844 0 100 5.688 2.844 2.844 0 000-5.688zM63.984 62.563a5.688 5.688 0 110-11.376 5.688 5.688 0 010 11.376zm0-8.532a2.843 2.843 0 100 5.687 2.843 2.843 0 000-5.687zM32.703 19.906H29.86v2.844h2.844v-2.844zM32.703 68.25H29.86v2.844h2.844V68.25zM61.14 68.25h-2.843v2.844h2.844V68.25zM19.906 44.078h-2.843v2.844h2.843v-2.844zM61.14 19.906h-2.843v2.844h2.844v-2.844zM73.938 44.078h-2.844v2.844h2.844v-2.844z"/><path d="M77.137 67.318l-8.535 9.95 2.158 1.852 8.535-9.95-2.158-1.852zM50.08 4.298l-.616 2.776 12.797 2.844.617-2.776-12.797-2.844zM83.859 29.504l-2.759.69 2.846 11.38 2.759-.69-2.846-11.38z"/><path d="M81.047 31.281a5.687 5.687 0 110-11.374 5.687 5.687 0 010 11.374zm0-8.531a2.843 2.843 0 100 5.687 2.843 2.843 0 000-5.687zM66.828 15.64a5.687 5.687 0 110-11.373 5.687 5.687 0 010 11.374zm0-8.53a2.844 2.844 0 100 5.687 2.844 2.844 0 000-5.688zM85.313 51.188a5.688 5.688 0 110-11.376 5.688 5.688 0 010 11.376zm0-8.532a2.844 2.844 0 100 5.688 2.844 2.844 0 000-5.688z"/><path d="M70.76 11.875l-2.159 1.85 8.531 9.954 2.16-1.85-8.532-9.954zM28.752 81.077l-.617 2.776 12.798 2.844.617-2.776-12.798-2.844zM7.077 49.413l-2.759.69 2.846 11.38 2.759-.69-2.846-11.38z"/><path d="M9.953 71.094a5.687 5.687 0 110-11.374 5.687 5.687 0 010 11.374zm0-8.531a2.844 2.844 0 100 5.687 2.844 2.844 0 000-5.688zM24.172 86.734a5.688 5.688 0 110-11.375 5.688 5.688 0 010 11.375zm0-8.53a2.843 2.843 0 100 5.686 2.843 2.843 0 000-5.687z"/><path d="M13.884 67.331l-2.159 1.851 8.532 9.954 2.159-1.85-8.532-9.955zM40.935 4.312L28.137 7.154l.616 2.776 12.798-2.842-.616-2.776zM7.163 29.52L4.315 40.9l2.759.69 2.848-11.38-2.759-.69z"/><path d="M9.953 31.281a5.687 5.687 0 110-11.374 5.687 5.687 0 010 11.374zm0-8.531a2.844 2.844 0 100 5.687 2.844 2.844 0 000-5.687zM24.172 15.64a5.687 5.687 0 110-11.373 5.687 5.687 0 010 11.374zm0-8.53a2.844 2.844 0 100 5.686 2.844 2.844 0 000-5.687zM5.688 51.188a5.688 5.688 0 110-11.376 5.688 5.688 0 010 11.376zm0-8.532a2.844 2.844 0 100 5.687 2.844 2.844 0 000-5.687z"/><path d="M20.256 11.866l-8.535 9.951 2.158 1.852 8.535-9.951-2.158-1.852zM31.985 58.467l-1.41 2.47 9.95 5.685 1.41-2.47-9.95-5.685zM28.438 38.39h-2.844v14.22h2.843V38.39zM31.628 36.065l-1.65 2.303 9.905 7.092 1.65-2.303-9.905-7.092zM58.324 35.54l-9.904 7.092 1.649 2.304 9.905-7.093-1.65-2.303zM46.922 9.953h-2.844v11.375h2.844V9.953zM50.333 25.703l-1.12 2.614 9.958 4.268 1.12-2.614-9.958-4.268zM59.014 58.498l-9.951 5.686 1.41 2.469 9.952-5.685-1.411-2.47zM68.888 58.462l-1.272 2.544 8.534 4.267 1.272-2.543-8.534-4.268zM22.121 58.442l-8.533 4.267 1.272 2.544 8.533-4.268-1.272-2.543zM65.406 38.39h-2.844v14.22h2.844V38.39zM14.852 27.176l-1.272 2.543 8.533 4.268 1.272-2.544-8.533-4.267z"/></g><defs><clipPath id="clip0"><path fill="#fff" d="M0 0h91v91H0z"/></clipPath></defs></svg>