<svg viewBox="0 0 25 25" xmlns="http://www.w3.org/2000/svg"><path fill="#446CB2" d="M24.145 6.765L17.774.147A.48.48 0 0017.43 0H7.936A1.928 1.928 0 006.01 1.926v6.728H2.163c-.795 0-1.442.646-1.442 1.44v7.215c0 .795.647 1.441 1.442 1.441H6.01v4.328c0 1.06.864 1.922 1.926 1.922h14.416a1.926 1.926 0 001.927-1.921V7.099a.48.48 0 00-.134-.334zm-6.597-5.467l5.229 5.433h-5.229V1.298zM2.163 17.788a.48.48 0 01-.48-.479v-7.214a.48.48 0 01.48-.48h12.982a.48.48 0 01.48.48v7.214a.48.48 0 01-.48.48H2.163zm21.154 5.29c0 .53-.433.96-.965.96H7.936a.964.964 0 01-.965-.96V18.75h8.174c.795 0 1.442-.646 1.442-1.441v-7.214c0-.795-.647-1.441-1.442-1.441H6.971V1.926c0-.532.433-.964.965-.964h8.65v6.25c0 .265.216.48.481.48h6.25V23.08z"/><path fill="#446CB2" d="M6.469 12.202a1.083 1.083 0 00-.594-.404c-.154-.042-.485-.062-.992-.062H3.545v4.13h.834v-1.558h.543c.378 0 .666-.02.865-.06.147-.031.29-.097.433-.195.142-.099.258-.235.35-.407.092-.173.138-.386.138-.64 0-.329-.08-.597-.239-.804zm-.714 1.136a.547.547 0 01-.26.203c-.112.044-.331.065-.66.065H4.38v-1.172h.403c.3 0 .5.01.6.029a.576.576 0 01.335.183.533.533 0 01.132.371c0 .123-.031.23-.094.322zM10.717 12.864a1.805 1.805 0 00-.394-.67 1.382 1.382 0 00-.623-.38c-.18-.052-.442-.078-.786-.078H7.39v4.13h1.57c.307 0 .553-.03.737-.088.246-.079.442-.189.586-.33a1.82 1.82 0 00.443-.73c.084-.245.126-.538.126-.878 0-.387-.045-.712-.135-.976zm-.811 1.696c-.057.185-.13.318-.219.398a.77.77 0 01-.336.172 2.27 2.27 0 01-.504.04h-.623v-2.736h.375c.34 0 .568.013.684.04a.793.793 0 01.386.194c.102.096.18.23.237.4.056.171.084.416.084.735 0 .32-.028.572-.084.757zM14.396 12.434v-.698h-2.831v4.13h.834V14.11h1.724v-.698h-1.724v-.978h1.997z"/></svg>