<svg viewBox="0 0 20 20" xmlns="http://www.w3.org/2000/svg"><path d="M16.029 6.25a3.129 3.129 0 01-3.125-3.125A3.129 3.129 0 0116.029 0a3.129 3.129 0 013.125 3.125 3.129 3.129 0 01-3.125 3.125zm0-5c-1.034 0-1.875.84-1.875 1.875 0 1.034.841 1.875 1.875 1.875 1.033 0 1.875-.84 1.875-1.875a1.877 1.877 0 00-1.875-1.875zM16.029 20a3.129 3.129 0 01-3.125-3.125 3.129 3.129 0 013.125-3.125 3.129 3.129 0 013.125 3.125A3.129 3.129 0 0116.029 20zm0-5c-1.034 0-1.875.84-1.875 1.875 0 1.034.841 1.875 1.875 1.875 1.033 0 1.875-.84 1.875-1.875A1.877 1.877 0 0016.029 15zM3.945 13.125A3.129 3.129 0 01.82 10a3.129 3.129 0 013.125-3.125A3.129 3.129 0 017.07 10a3.129 3.129 0 01-3.125 3.125zm0-5c-1.033 0-1.875.84-1.875 1.875 0 1.034.842 1.875 1.875 1.875 1.034 0 1.875-.84 1.875-1.875a1.877 1.877 0 00-1.875-1.875z" /><path d="M6.121 9.392a.623.623 0 01-.31-1.168l7.733-4.408a.625.625 0 01.618 1.086L6.429 9.31a.626.626 0 01-.308.082zM13.853 16.267a.62.62 0 01-.309-.083l-7.732-4.408a.625.625 0 01.618-1.086l7.733 4.408a.625.625 0 01-.31 1.169z" /></svg>