<svg viewBox="0 0 55 55" fill="none" xmlns="http://www.w3.org/2000/svg"><path fill-rule="evenodd" clip-rule="evenodd" d="M27.491 54.923C42.647 54.923 55 42.593 55 27.462 55 12.33 42.647 0 27.491 0 12.336 0 0 12.35 0 27.462c0 15.111 12.353 27.461 27.491 27.461z" fill="url(#paint0_radial)"/><path d="M16.99 34.327l11.418-7.94 3.928 1.4 12.647 14.729 2.716 3.586c2.562-2.787 4.527-6.176 5.752-9.916a29.31 29.31 0 001.324-11.697c-1.817 1.055-8.183 1.918-11.782-.498-3.599-2.417-3.668-6.233-2.959-7.786a14.53 14.53 0 012.786-4.45c1.73-1.802 3.46-2.224 5.38-4.18 1.178-1.341 1.91-3.086 2.077-4.948.12-.249 1.54-2.627 1.54-2.627S49.36 1.266 49.1 1.362c-1.716.171-3.38.746-4.879 1.687-1.92 1.496-2.543 3.529-5.017 5.542-2.474 2.014-4.567 1.324-10.796 7.21-4.965 4.68-7.768 12.562-15.57 14.94C5.034 33.119.103 25.314.103 25.314A30.563 30.563 0 001.834 37.3a18.681 18.681 0 002.785 5.388l12.37-8.361z" fill="#2E81FF"/><path d="M52.872 37.875s-8.858.882-13.84-5.485c-4.984-6.367-1.523-13.424-7.042-12.925-3.115.268-6.039 5.12-10.935 9.914a44.485 44.485 0 01-8.339 6.866c-3.086 1.858-6.484 2.994-9.982 3.337a34.956 34.956 0 004.878 6.865c2.481 2.489 5.309 4.516 8.374 6.002-2.907-3.835-1.73-10.106-.64-12.599 1.623-3.345 4.112-6.077 7.145-7.843 3.097-2.148 6.004-3.836 6.92-3.548.399.115-.224 5.753 3.288 12.33 2.29 4.454 5.99 7.809 10.38 9.416a37.06 37.06 0 004.568-3.835c2.259-2.395 4.039-5.29 5.225-8.495z" fill="url(#paint1_radial)"/><defs><radialGradient id="paint0_radial" cx="0" cy="0" r="1" gradientUnits="userSpaceOnUse" gradientTransform="matrix(55.2005 0 0 55.1283 55.797 .136)"><stop stop-color="#fff"/><stop offset=".54" stop-color="#F3F3F4"/><stop offset="1" stop-color="#E4E4E5"/></radialGradient><radialGradient id="paint1_radial" cx="0" cy="0" r="1" gradientUnits="userSpaceOnUse" gradientTransform="matrix(47.3197 0 0 47.2578 40.577 13.179)"><stop stop-color="#97238A"/><stop offset=".6" stop-color="#456DB3"/><stop offset="1" stop-color="#32338E"/></radialGradient></defs></svg>