<svg viewBox="0 0 326 21" fill="none" xmlns="http://www.w3.org/2000/svg"><path d="M8.868.183h2.077l9.228 20.575h-3.022l-2.769-6.063H5.615l-2.574 6.063H0L8.868.183zm4.338 11.888L9.879 4.659l-3.087 7.412h6.414zM31.805.298h2.958v17.785h9.293v2.666h-12.25V.297zM51.203.27h17.239v2.606h-7.194V20.75h-2.971V2.875h-7.074V.27zM80.614.298h2.953v20.45h-2.953V.299zM97.608 20.748V.299h5.172c2.086 0 3.742.512 4.97 1.536a5.146 5.146 0 011.845 4.16 5.077 5.077 0 01-.903 3.088 5.157 5.157 0 01-2.585 1.942 9.197 9.197 0 011.938 1.755 35.84 35.84 0 012.658 3.882c.72 1.161 1.296 2.035 1.73 2.62l1.089 1.463h-3.516l-.9-1.349a2.87 2.87 0 00-.175-.247l-.577-.804-.923-1.495-.987-1.596a15.927 15.927 0 00-1.675-2.007 6.568 6.568 0 00-1.384-1.075 4.652 4.652 0 00-2.063-.329h-.766v8.902l-2.948.005zm3.843-17.963h-.886V9.24h1.122c1.495 0 2.524-.124 3.077-.38.544-.239.999-.64 1.302-1.147.313-.531.472-1.137.461-1.752a3.078 3.078 0 00-.517-1.746 2.763 2.763 0 00-1.453-1.106 10.588 10.588 0 00-3.129-.325h.023zM125.15.298h2.953v20.45h-2.953V.299zM156.973.298h3.572l-8.255 9.862 8.832 10.588h-3.572l-7.027-8.467-7.097 8.467h-3.608L148.7 10.16 140.455.298h3.603l6.46 7.809 6.455-7.81zM201.712 10.676h6.922v8.687A19.037 19.037 0 01201.066 21c-3.414 0-6.144-.988-8.19-2.963a9.795 9.795 0 01-2.31-3.337 9.732 9.732 0 01-.754-3.978 10.093 10.093 0 01.772-4.149 10.173 10.173 0 012.403-3.482 11.03 11.03 0 013.677-2.328 11.103 11.103 0 014.301-.73 14.313 14.313 0 013.308.374c1.354.356 2.677.814 3.959 1.372v2.986a14.605 14.605 0 00-7.327-2.126 7.838 7.838 0 00-3.089.56c-.981.393-1.87.98-2.614 1.726a8.068 8.068 0 00-2.316 5.65c0 2.111.831 4.139 2.316 5.652 1.538 1.472 3.528 2.208 5.97 2.208 1.447-.05 2.878-.32 4.241-.805l.277-.086v-4.262h-3.973l-.005-2.606zM222.393 20.748V.299h5.172c2.086 0 3.747.512 4.97 1.536a5.16 5.16 0 011.411 1.868c.32.721.468 1.505.434 2.293a5.088 5.088 0 01-.906 3.085 5.166 5.166 0 01-2.582 1.944 9.197 9.197 0 011.938 1.755 35.698 35.698 0 012.658 3.882c.72 1.161 1.295 2.035 1.726 2.62l1.093 1.463h-3.52l-.9-1.349a3.222 3.222 0 00-.176-.247l-.576-.804-.923-1.495-.988-1.596a15.61 15.61 0 00-1.679-2.007 6.469 6.469 0 00-1.384-1.075 4.652 4.652 0 00-2.063-.329h-.77v8.902l-2.935.005zm3.844-17.963h-.891V9.24h1.126c1.495 0 2.524-.124 3.077-.38.544-.239.999-.64 1.302-1.147a3.28 3.28 0 00.461-1.752 3.078 3.078 0 00-.517-1.746 2.766 2.766 0 00-1.458-1.106 10.523 10.523 0 00-3.1-.325zM258.24.005a11.195 11.195 0 014.284.713 11.118 11.118 0 013.68 2.286 9.946 9.946 0 012.403 3.426 9.884 9.884 0 01.777 4.1 9.712 9.712 0 01-.793 4.093 9.79 9.79 0 01-2.437 3.396c-2.123 1.966-4.814 2.949-8.075 2.949a10.857 10.857 0 01-4.188-.706 10.778 10.778 0 01-3.587-2.257 9.885 9.885 0 01-2.352-3.387 9.804 9.804 0 01-.758-4.042c-.038-1.41.222-2.811.763-4.115a10.095 10.095 0 012.379-3.457c2.08-1.996 4.714-2.996 7.904-2.999zm.116 2.78a8.085 8.085 0 00-3.134.508 8.03 8.03 0 00-2.689 1.673 7.464 7.464 0 00-2.28 5.605 7.299 7.299 0 002.307 5.487 8.538 8.538 0 005.754 2.193 8.54 8.54 0 005.736-2.24 7.473 7.473 0 001.745-2.548c.397-.96.589-1.992.562-3.029a7.27 7.27 0 00-.566-2.986 7.33 7.33 0 00-1.741-2.5 7.863 7.863 0 00-2.627-1.652 7.908 7.908 0 00-3.067-.511zM296.727.298h2.981v11.608a13.73 13.73 0 01-.346 3.557 7.564 7.564 0 01-.858 1.998 6.26 6.26 0 01-1.251 1.427c-1.64 1.387-3.779 2.08-6.418 2.08-2.689 0-4.842-.692-6.46-2.076a6.627 6.627 0 01-1.25-1.444 7.229 7.229 0 01-.84-1.953 14.112 14.112 0 01-.337-3.63V.298h2.971v11.608c0 1.926.222 3.263.665 4.01a4.688 4.688 0 002.025 1.829 7.089 7.089 0 003.203.68 6.53 6.53 0 004.286-1.37 4.209 4.209 0 001.255-1.729c.259-.663.383-1.801.383-3.41L296.727.297zM312.978 20.748V.27h6.543c1.968 0 3.54.528 4.715 1.582a5.435 5.435 0 011.352 1.93c.304.732.442 1.522.406 2.313a5.622 5.622 0 01-.922 3.164 5.163 5.163 0 01-2.464 1.998 12.767 12.767 0 01-4.495.622h-2.187v8.87h-2.948zm6.026-17.872h-3.059v6.401h3.23a4.146 4.146 0 002.768-.841 3.03 3.03 0 00.974-2.41c.012-2.1-1.292-3.15-3.913-3.15z" fill="#446CB2"/></svg>