<?xml version="1.0" encoding="utf-8"?><svg xmlns="http://www.w3.org/2000/svg" xmlns:xlink="http://www.w3.org/1999/xlink"><symbol viewBox="0 0 18 12" id="altrix_arrow-right" xmlns="http://www.w3.org/2000/svg"><path d="M0 7h14.17l-3.58 3.59L12 12l6-6-6-6-1.41 1.41L14.17 5H0v2z"/></symbol><symbol viewBox="0 0 21 18" fill="none" id="altrix_bar" xmlns="http://www.w3.org/2000/svg"><path d="M0 18h21v-3H0v3zm0-7.5h21v-3H0v3zM0 0v3h21V0H0z" fill="#446CB2"/></symbol><symbol viewBox="0 0 10 6" id="altrix_chevron-down" xmlns="http://www.w3.org/2000/svg"><path d="M.885 0L0 .902 5 6l5-5.098L9.115 0 5 4.195.885 0z"/></symbol><symbol viewBox="0 0 12 20" id="altrix_chevron-left" xmlns="http://www.w3.org/2000/svg"><path d="M12 1.77L10.23 0l-10 10 10 10L12 18.23 3.77 10 12 1.77z"/></symbol><symbol viewBox="0 0 12 20" id="altrix_chevron-right" xmlns="http://www.w3.org/2000/svg"><path d="M0 18.23L1.77 20l10-10-10-10L0 1.77 8.23 10 0 18.23z"/></symbol><symbol viewBox="0 0 20 12" id="altrix_chevron-up" xmlns="http://www.w3.org/2000/svg"><path d="M18.23 12L20 10.23l-10-10-10 10L1.77 12 10 3.77 18.23 12z"/></symbol><symbol viewBox="0 0 20 20" id="altrix_clock" xmlns="http://www.w3.org/2000/svg"><path d="M10 0C4.486 0 0 4.486 0 10s4.486 10 10 10 10-4.486 10-10S15.514 0 10 0zm0 18.75c-4.825 0-8.75-3.925-8.75-8.75S5.175 1.25 10 1.25s8.75 3.925 8.75 8.75-3.925 8.75-8.75 8.75z"/><path d="M10.625 3.75h-1.25v6.509l3.933 3.933.884-.884-3.567-3.567V3.75z"/></symbol><symbol viewBox="0 0 14 14" id="altrix_close" xmlns="http://www.w3.org/2000/svg"><path d="M14 1.41L12.59 0 7 5.59 1.41 0 0 1.41 5.59 7 0 12.59 1.41 14 7 8.41 12.59 14 14 12.59 8.41 7 14 1.41z"/></symbol><symbol viewBox="0 0 14 17" id="altrix_download" xmlns="http://www.w3.org/2000/svg"><path d="M0 17h14v-2H0v2zM14 6h-4V0H4v6H0l7 7 7-7z"/></symbol><symbol viewBox="0 0 448 512" id="altrix_facebook-square" xmlns="http://www.w3.org/2000/svg"><path d="M400 32H48A48 48 0 000 80v352a48 48 0 0048 48h137.25V327.69h-63V256h63v-54.64c0-62.15 37-96.48 93.67-96.48 27.14 0 55.52 4.84 55.52 4.84v61h-31.27c-30.81 0-40.42 19.12-40.42 38.73V256h68.78l-11 71.69h-57.78V480H400a48 48 0 0048-48V80a48 48 0 00-48-48z"/></symbol><symbol viewBox="0 0 24 25" fill="none" id="altrix_file-doc" xmlns="http://www.w3.org/2000/svg"><g clip-path="url(#akclip0)" fill="#446CB2"><path d="M23.878 6.765L17.579.147A.473.473 0 0017.236 0H7.848c-1.05 0-1.905.864-1.905 1.926v6.728H2.138c-.786 0-1.425.646-1.425 1.44v7.215c0 .795.64 1.441 1.425 1.441h3.805v4.328c0 1.06.855 1.922 1.905 1.922h14.257a1.916 1.916 0 001.906-1.921V7.099a.484.484 0 00-.133-.334zm-6.524-5.467l5.171 5.433h-5.17V1.298zM2.138 17.788a.478.478 0 01-.474-.479v-7.214c0-.264.213-.48.474-.48h12.84c.261 0 .474.216.474.48v7.214c0 .264-.213.48-.474.48H2.138zm20.922 5.29c0 .53-.428.96-.955.96H7.848a.959.959 0 01-.954-.96V18.75h8.084c.786 0 1.425-.646 1.425-1.441v-7.214c0-.795-.64-1.441-1.425-1.441H6.894V1.926a.96.96 0 01.954-.964h8.555v6.25c0 .265.213.48.476.48h6.18V23.08z"/><path d="M6.317 12.864a1.809 1.809 0 00-.39-.67 1.362 1.362 0 00-.615-.38c-.179-.052-.438-.078-.778-.078H3.027v4.13H4.58c.305 0 .548-.03.73-.088.243-.079.436-.189.58-.33.189-.186.335-.429.437-.73.083-.245.125-.538.125-.878 0-.387-.044-.712-.134-.976zm-.802 1.696c-.056.185-.128.317-.216.398a.758.758 0 01-.333.172c-.102.026-.268.04-.498.04h-.616v-2.736h.37c.337 0 .562.013.677.04a.783.783 0 01.382.194c.1.096.178.23.234.4.056.17.084.416.084.735 0 .32-.028.572-.084.757zm8.687-.213c-.069.302-.182.524-.34.665a.82.82 0 01-.566.211.9.9 0 01-.724-.332c-.186-.222-.278-.594-.278-1.116 0-.492.094-.848.282-1.067a.925.925 0 01.737-.33.86.86 0 01.559.186.878.878 0 01.302.507l.816-.197c-.092-.33-.232-.584-.418-.76-.311-.3-.717-.449-1.217-.449-.572 0-1.034.19-1.385.57-.35.381-.526.915-.526 1.602 0 .65.174 1.162.524 1.537.349.374.794.562 1.337.562.438 0 .8-.11 1.085-.328.285-.22.489-.554.611-1.005l-.799-.256zm-3.799-2.115c-.361-.378-.843-.567-1.444-.567a2.22 2.22 0 00-.88.164 1.59 1.59 0 00-.529.371c-.16.168-.287.356-.38.567-.124.285-.187.638-.187 1.059 0 .657.18 1.173.538 1.548.359.374.842.562 1.449.562.6 0 1.079-.188 1.437-.565.359-.377.538-.898.538-1.565 0-.672-.18-1.197-.542-1.574zm-.627 2.632c-.21.24-.48.36-.81.36-.328 0-.599-.122-.812-.363-.214-.241-.32-.596-.32-1.063 0-.475.103-.83.311-1.066.208-.236.482-.354.822-.354.34 0 .612.116.818.35.205.232.307.585.307 1.059 0 .478-.105.838-.316 1.077z"/></g><defs><clipPath id="akclip0"><path fill="#fff" d="M0 0h24v25H0z"/></clipPath></defs></symbol><symbol viewBox="0 0 25 25" id="altrix_file-pdf" xmlns="http://www.w3.org/2000/svg"><path fill="#446CB2" d="M24.145 6.765L17.774.147A.48.48 0 0017.43 0H7.936A1.928 1.928 0 006.01 1.926v6.728H2.163c-.795 0-1.442.646-1.442 1.44v7.215c0 .795.647 1.441 1.442 1.441H6.01v4.328c0 1.06.864 1.922 1.926 1.922h14.416a1.926 1.926 0 001.927-1.921V7.099a.48.48 0 00-.134-.334zm-6.597-5.467l5.229 5.433h-5.229V1.298zM2.163 17.788a.48.48 0 01-.48-.479v-7.214a.48.48 0 01.48-.48h12.982a.48.48 0 01.48.48v7.214a.48.48 0 01-.48.48H2.163zm21.154 5.29c0 .53-.433.96-.965.96H7.936a.964.964 0 01-.965-.96V18.75h8.174c.795 0 1.442-.646 1.442-1.441v-7.214c0-.795-.647-1.441-1.442-1.441H6.971V1.926c0-.532.433-.964.965-.964h8.65v6.25c0 .265.216.48.481.48h6.25V23.08z"/><path fill="#446CB2" d="M6.469 12.202a1.083 1.083 0 00-.594-.404c-.154-.042-.485-.062-.992-.062H3.545v4.13h.834v-1.558h.543c.378 0 .666-.02.865-.06.147-.031.29-.097.433-.195.142-.099.258-.235.35-.407a1.35 1.35 0 00.138-.64c0-.329-.08-.597-.239-.804zm-.714 1.136a.547.547 0 01-.26.203c-.112.044-.331.065-.66.065H4.38v-1.172h.403c.3 0 .5.01.6.029a.576.576 0 01.335.183.533.533 0 01.132.371c0 .123-.031.23-.094.322zm4.962-.474a1.805 1.805 0 00-.394-.67 1.382 1.382 0 00-.623-.38c-.18-.052-.442-.078-.786-.078H7.39v4.13h1.57c.307 0 .553-.03.737-.088.246-.079.442-.189.586-.33a1.82 1.82 0 00.443-.73c.084-.245.126-.538.126-.878 0-.387-.045-.712-.135-.976zm-.811 1.696c-.057.185-.13.318-.219.398a.77.77 0 01-.336.172 2.27 2.27 0 01-.504.04h-.623v-2.736h.375c.34 0 .568.013.684.04a.793.793 0 01.386.194c.102.096.18.23.237.4.056.171.084.416.084.735 0 .32-.028.572-.084.757zm4.49-2.126v-.698h-2.831v4.13h.834V14.11h1.724v-.698h-1.724v-.978h1.997z"/></symbol><symbol viewBox="0 0 25 25" fill="none" id="altrix_file-xls" xmlns="http://www.w3.org/2000/svg"><g clip-path="url(#amclip0)" fill="#446CB2"><path d="M24.145 6.765L17.774.147A.48.48 0 0017.43 0H7.936A1.928 1.928 0 006.01 1.926v6.728H2.163c-.795 0-1.442.646-1.442 1.44v7.215c0 .795.647 1.441 1.442 1.441H6.01v4.328c0 1.06.864 1.922 1.926 1.922h14.416a1.926 1.926 0 001.927-1.921V7.099a.48.48 0 00-.134-.334zm-6.597-5.467l5.229 5.433h-5.229V1.298zM2.163 17.788a.48.48 0 01-.48-.479v-7.214a.48.48 0 01.48-.48h12.982a.48.48 0 01.48.48v7.214a.48.48 0 01-.48.48H2.163zm21.154 5.29c0 .53-.433.96-.965.96H7.936a.964.964 0 01-.965-.96V18.75h8.174c.795 0 1.442-.646 1.442-1.441v-7.214c0-.795-.647-1.441-1.442-1.441H6.971V1.926c0-.532.433-.964.965-.964h8.65v6.25c0 .265.216.48.481.48h6.25V23.08z"/><path d="M13.899 14.005a1.16 1.16 0 00-.457-.42c-.194-.102-.494-.201-.9-.297-.405-.096-.66-.188-.766-.276a.317.317 0 01-.124-.25.3.3 0 01.133-.257c.137-.1.326-.15.569-.15.234 0 .41.047.528.14.117.093.194.245.23.458l.833-.037c-.013-.38-.15-.683-.412-.91-.263-.227-.653-.34-1.17-.34-.318 0-.59.047-.814.143a1.12 1.12 0 00-.515.418 1.08 1.08 0 00.201 1.422c.18.16.494.297.941.408.348.086.57.146.668.18.143.05.242.11.3.179a.376.376 0 01.086.25.507.507 0 01-.205.398c-.136.114-.338.17-.607.17-.253 0-.455-.063-.604-.191-.15-.128-.248-.328-.297-.6l-.811.079c.054.462.221.813.501 1.055.28.24.68.362 1.203.362.359 0 .658-.05.899-.151a1.215 1.215 0 00.755-1.125c0-.261-.056-.48-.165-.658zM8.25 15.17v-3.4h-.834v4.095h2.907v-.696H8.249zm-2.697-1.429l1.285-2.005h-.966l-.812 1.326-.828-1.326h-.975l1.28 1.974-1.412 2.155h1l.918-1.428.916 1.428h1.006l-1.412-2.124z"/></g><defs><clipPath id="amclip0"><path fill="#fff" d="M0 0h24.316v25H0z"/></clipPath></defs></symbol><symbol viewBox="0 0 448 512" id="altrix_linkedin" xmlns="http://www.w3.org/2000/svg"><path d="M416 32H31.9C14.3 32 0 46.5 0 64.3v383.4C0 465.5 14.3 480 31.9 480H416c17.6 0 32-14.5 32-32.3V64.3c0-17.8-14.4-32.3-32-32.3zM135.4 416H69V202.2h66.5V416zm-33.2-243c-21.3 0-38.5-17.3-38.5-38.5S80.9 96 102.2 96c21.2 0 38.5 17.3 38.5 38.5 0 21.3-17.2 38.5-38.5 38.5zm282.1 243h-66.4V312c0-24.8-.5-56.7-34.5-56.7-34.6 0-39.9 27-39.9 54.9V416h-66.4V202.2h63.7v29.2h.9c8.9-16.8 30.6-34.5 62.9-34.5 67.2 0 79.7 44.3 79.7 101.9V416z"/></symbol><symbol viewBox="0 0 16 16" id="altrix_login" xmlns="http://www.w3.org/2000/svg"><path d="M8 8c2.21 0 4-1.79 4-4s-1.79-4-4-4-4 1.79-4 4 1.79 4 4 4zm0 2c-2.67 0-8 1.34-8 4v2h16v-2c0-2.66-5.33-4-8-4z"/></symbol><symbol viewBox="0 0 25 25" id="altrix_loupe" xmlns="http://www.w3.org/2000/svg"><path d="M17.867 15.723h-1.129l-.4-.386a9.25 9.25 0 002.244-6.046A9.29 9.29 0 009.291 0 9.29 9.29 0 000 9.291a9.29 9.29 0 009.291 9.291 9.25 9.25 0 006.046-2.244l.386.4v1.13L22.87 25 25 22.87l-7.133-7.147zm-8.576 0a6.424 6.424 0 01-6.432-6.432A6.424 6.424 0 019.29 2.859a6.424 6.424 0 016.432 6.432 6.424 6.424 0 01-6.432 6.432z"/></symbol><symbol viewBox="0 0 20 16" id="altrix_mail" xmlns="http://www.w3.org/2000/svg"><path d="M18 0H2C.9 0 .01.9.01 2L0 14c0 1.1.9 2 2 2h16c1.1 0 2-.9 2-2V2c0-1.1-.9-2-2-2zm0 4l-8 5-8-5V2l8 5 8-5v2z"/></symbol><symbol viewBox="0 0 98 96" fill="none" id="altrix_notebook" xmlns="http://www.w3.org/2000/svg"><g clip-path="url(#arclip0)" fill="#fff"><path d="M90.972 96H7.013L0 88.893v-5.28h38.91l3.062 3.097h14.041l3.063-3.097H98v5.28L90.972 96zM8.284 92.903h81.417l5.237-5.295v-.898H60.346l-3.063 3.097H40.701l-3.063-3.097H3.063v.898l5.221 5.295zM44.406 77.42h-3.062v3.096h3.062V77.42zm-6.125 0H35.22v3.096h3.062V77.42zm12.25 0H47.47v3.096h3.062V77.42zm6.125 0h-3.062v3.096h3.062V77.42zm6.125 0H59.72v3.096h3.062V77.42zm-12.25-3.097H47.47V18.58h35.218v3.096H50.532v52.646zM44.406 6.194h-3.062V0h35.218v3.097H44.407v3.097zm0 9.29h-3.062v58.839h3.062v-58.84z"/><path d="M62.781 74.323H59.72V49.548h9.187v3.097h-6.125v21.678zm-6.125-58.839h-3.062v-3.097H21.437V9.29h35.22v6.194zm0 9.29h-3.062v49.549h3.062V24.774zM38.281 74.323H35.22V46.452H18.375v-3.097h19.906v30.968zM12.25 9.29H9.187v3.097h3.063V9.29zm6.125 0h-3.063v3.097h3.063V9.29zM82.688 0h-3.063v3.097h3.063V0zm6.125 0H85.75v3.097h3.063V0z"/><path d="M88.813 80.516h-22.97V77.42H85.75V37.161c0-.821-.323-1.609-.897-2.19a3.045 3.045 0 00-2.165-.906H15.311c-.812 0-1.59.326-2.165.907a3.114 3.114 0 00-.897 2.19v40.257h19.906v3.097H9.188V37.161c0-1.642.645-3.218 1.793-4.38a6.09 6.09 0 014.332-1.813h67.374a6.09 6.09 0 014.332 1.814 6.229 6.229 0 011.793 4.38v43.354z"/></g><defs><clipPath id="arclip0"><path fill="#fff" d="M0 0h98v96H0z"/></clipPath></defs></symbol><symbol fill="none" viewBox="0 0 98 96" id="altrix_notebook-2" xmlns="http://www.w3.org/2000/svg"><g clip-path="url(#asclip0)" fill="#fff"><path d="M90.972 96H7.013L0 88.893v-5.28h38.91l3.062 3.097h14.041l3.063-3.097H98v5.28L90.972 96zM8.284 92.903h81.417l5.237-5.295v-.898H60.346l-3.063 3.096H40.701l-3.063-3.096H3.063v.898l5.221 5.295zM44.406 77.42h-3.062v3.096h3.062V77.42zm-6.125 0H35.22v3.096h3.062V77.42zm12.25 0H47.47v3.096h3.062V77.42zm6.125 0h-3.062v3.096h3.062V77.42zm6.125 0H59.72v3.096h3.062V77.42zm-12.25-3.097H47.47V18.58h35.218v3.096H50.532v52.645zM44.406 6.194h-3.062V0h35.218v3.097H44.407v3.097zm0 9.29h-3.062v58.839h3.062v-58.84z"/><path d="M62.781 74.323H59.72V49.548h9.187v3.097h-6.125v21.678zm-6.125-58.839h-3.062v-3.097H21.437V9.29h35.22v6.194zm0 9.29h-3.062v49.549h3.062V24.774zM38.281 74.323H35.22V46.452H18.375v-3.097h19.906v30.968zM12.25 9.29H9.187v3.097h3.063V9.29zm6.125 0h-3.063v3.097h3.063V9.29zM82.688 0h-3.063v3.097h3.063V0zm6.125 0H85.75v3.097h3.063V0z"/></g><defs><clipPath id="asclip0"><path fill="#fff" d="M0 0h98v96H0z"/></clipPath></defs></symbol><symbol fill="none" viewBox="0 0 33 20" id="altrix_page-views" xmlns="http://www.w3.org/2000/svg"><g clip-path="url(#atclip0_1316:215)"><path d="M16.495-.019c-6.303 0-12.02 3.512-16.237 9.217a1.35 1.35 0 000 1.587c4.218 5.712 9.934 9.224 16.237 9.224 6.303 0 12.019-3.512 16.237-9.217a1.35 1.35 0 000-1.588c-4.218-5.71-9.934-9.223-16.237-9.223zm.452 17.065c-4.184.268-7.64-3.244-7.376-7.512.216-3.519 3.017-6.37 6.472-6.59 4.184-.269 7.64 3.243 7.376 7.511-.223 3.512-3.023 6.365-6.472 6.591zm-.21-3.257c-2.253.144-4.116-1.746-3.967-4.042.114-1.896 1.626-3.43 3.489-3.553 2.254-.144 4.116 1.746 3.968 4.041-.122 1.904-1.633 3.437-3.49 3.554z" fill="#446CB2"/></g><defs><clipPath id="atclip0_1316:215"><path fill="#fff" d="M0 0h33v20H0z"/></clipPath></defs></symbol><symbol viewBox="0 0 12 12" id="altrix_phone" xmlns="http://www.w3.org/2000/svg"><path d="M11.333 8.333a7.573 7.573 0 01-2.38-.38.68.68 0 00-.68.16L6.807 9.58a10.03 10.03 0 01-4.394-4.393L3.88 3.713a.64.64 0 00.167-.666 7.574 7.574 0 01-.38-2.38C3.667.3 3.367 0 3 0H.667C.3 0 0 .3 0 .667 0 6.927 5.073 12 11.333 12c.367 0 .667-.3.667-.667V9c0-.367-.3-.667-.667-.667zM10.667 6H12a6 6 0 00-6-6v1.333A4.663 4.663 0 0110.667 6zM8 6h1.333A3.335 3.335 0 006 2.667V4c1.107 0 2 .893 2 2z"/></symbol><symbol viewBox="0 0 20 20" id="altrix_phone-arrow" xmlns="http://www.w3.org/2000/svg"><path d="M15 10l5-5-5-5v3h-4v4h4v3zm2 4.5c-1.25 0-2.45-.2-3.57-.57a1.02 1.02 0 00-1.02.24l-2.2 2.2a15.045 15.045 0 01-6.59-6.59l2.2-2.21a.96.96 0 00.25-1A11.36 11.36 0 015.5 3c0-.55-.45-1-1-1H1c-.55 0-1 .45-1 1 0 9.39 7.61 17 17 17 .55 0 1-.45 1-1v-3.5c0-.55-.45-1-1-1z"/></symbol><symbol viewBox="0 0 14 20" id="altrix_pin" xmlns="http://www.w3.org/2000/svg"><path d="M7 0C3.13 0 0 3.13 0 7c0 5.25 7 13 7 13s7-7.75 7-13c0-3.87-3.13-7-7-7zm0 9.5a2.5 2.5 0 010-5 2.5 2.5 0 010 5z"/></symbol><symbol viewBox="0 0 8 14" id="altrix_separator" xmlns="http://www.w3.org/2000/svg"><path d="M0 12.761L1.203 14 8 7 1.203 0 0 1.239 5.594 7 0 12.761z"/></symbol><symbol viewBox="0 0 20 20" id="altrix_share" xmlns="http://www.w3.org/2000/svg"><path d="M16.029 6.25a3.129 3.129 0 01-3.125-3.125A3.129 3.129 0 0116.029 0a3.129 3.129 0 013.125 3.125 3.129 3.129 0 01-3.125 3.125zm0-5c-1.034 0-1.875.84-1.875 1.875 0 1.034.841 1.875 1.875 1.875 1.033 0 1.875-.84 1.875-1.875a1.877 1.877 0 00-1.875-1.875zm0 18.75a3.129 3.129 0 01-3.125-3.125 3.129 3.129 0 013.125-3.125 3.129 3.129 0 013.125 3.125A3.129 3.129 0 0116.029 20zm0-5c-1.034 0-1.875.84-1.875 1.875 0 1.034.841 1.875 1.875 1.875 1.033 0 1.875-.84 1.875-1.875A1.877 1.877 0 0016.029 15zM3.945 13.125A3.129 3.129 0 01.82 10a3.129 3.129 0 013.125-3.125A3.129 3.129 0 017.07 10a3.129 3.129 0 01-3.125 3.125zm0-5c-1.033 0-1.875.84-1.875 1.875 0 1.034.842 1.875 1.875 1.875 1.034 0 1.875-.84 1.875-1.875a1.877 1.877 0 00-1.875-1.875z"/><path d="M6.121 9.392a.623.623 0 01-.31-1.168l7.733-4.408a.625.625 0 01.618 1.086L6.429 9.31a.626.626 0 01-.308.082zm7.732 6.875a.62.62 0 01-.309-.083l-7.732-4.408a.625.625 0 01.618-1.086l7.733 4.408a.625.625 0 01-.31 1.169z"/></symbol><symbol viewBox="0 0 91 91" fill="none" id="altrix_sphere" xmlns="http://www.w3.org/2000/svg"><g clip-path="url(#azclip0)" fill="#fff"><path d="M62.248 81.099L49.45 83.941l.616 2.776 12.798-2.842-.616-2.776zm21.683-31.681l-2.848 11.38 2.759.69 2.848-11.38-2.759-.69zM46.922 69.672h-2.844v11.375h2.844V69.672zM45.5 51.188a5.688 5.688 0 110-11.376 5.688 5.688 0 010 11.376zm0-8.532a2.844 2.844 0 100 5.688 2.844 2.844 0 000-5.688zm0-11.375a5.687 5.687 0 110-11.374 5.687 5.687 0 010 11.374zm0-8.531a2.844 2.844 0 100 5.688 2.844 2.844 0 000-5.688zm0-11.375a5.688 5.688 0 110-11.376 5.688 5.688 0 010 11.376zm0-8.531a2.844 2.844 0 100 5.688 2.844 2.844 0 000-5.688z"/><path d="M45.5 71.094a5.687 5.687 0 110-11.374 5.687 5.687 0 010 11.374zm0-8.531a2.844 2.844 0 100 5.687 2.844 2.844 0 000-5.688zM45.5 91a5.688 5.688 0 110-11.376A5.688 5.688 0 0145.5 91zm0-8.531a2.844 2.844 0 100 5.687 2.844 2.844 0 000-5.687zM27.016 39.813a5.688 5.688 0 110-11.376 5.688 5.688 0 010 11.375zm0-8.532a2.844 2.844 0 100 5.688 2.844 2.844 0 000-5.688zm36.968 8.532a5.688 5.688 0 110-11.376 5.688 5.688 0 010 11.375zm0-8.532a2.843 2.843 0 100 5.687 2.843 2.843 0 000-5.687zm17.063 39.813a5.687 5.687 0 110-11.374 5.687 5.687 0 010 11.374zm0-8.531a2.843 2.843 0 100 5.686 2.843 2.843 0 000-5.686zM66.828 86.734a5.688 5.688 0 110-11.375 5.688 5.688 0 010 11.375zm0-8.53a2.844 2.844 0 100 5.687 2.844 2.844 0 000-5.688zM27.016 62.563a5.688 5.688 0 110-11.376 5.688 5.688 0 010 11.376zm0-8.532a2.844 2.844 0 100 5.688 2.844 2.844 0 000-5.688zm36.968 8.532a5.688 5.688 0 110-11.376 5.688 5.688 0 010 11.376zm0-8.532a2.843 2.843 0 100 5.687 2.843 2.843 0 000-5.687zM32.703 19.906H29.86v2.844h2.844v-2.844zm0 48.344H29.86v2.844h2.844V68.25zm28.437 0h-2.843v2.844h2.844V68.25zM19.906 44.078h-2.843v2.844h2.843v-2.844zM61.14 19.906h-2.843v2.844h2.844v-2.844zm12.798 24.172h-2.844v2.844h2.844v-2.844z"/><path d="M77.137 67.318l-8.535 9.95 2.158 1.852 8.535-9.95-2.158-1.852zM50.08 4.298l-.616 2.776 12.797 2.844.617-2.776-12.797-2.844zm33.779 25.206l-2.759.69 2.846 11.38 2.759-.69-2.846-11.38z"/><path d="M81.047 31.281a5.687 5.687 0 110-11.374 5.687 5.687 0 010 11.374zm0-8.531a2.843 2.843 0 100 5.687 2.843 2.843 0 000-5.687zm-14.219-7.11a5.687 5.687 0 110-11.373 5.687 5.687 0 010 11.374zm0-8.53a2.844 2.844 0 100 5.687 2.844 2.844 0 000-5.688zm18.485 44.078a5.688 5.688 0 110-11.376 5.688 5.688 0 010 11.376zm0-8.532a2.844 2.844 0 100 5.688 2.844 2.844 0 000-5.688z"/><path d="M70.76 11.875l-2.159 1.85 8.531 9.954 2.16-1.85-8.532-9.954zM28.752 81.077l-.617 2.776 12.798 2.844.617-2.776-12.798-2.844zM7.077 49.413l-2.759.69 2.846 11.38 2.759-.69-2.846-11.38z"/><path d="M9.953 71.094a5.687 5.687 0 110-11.374 5.687 5.687 0 010 11.374zm0-8.531a2.844 2.844 0 100 5.687 2.844 2.844 0 000-5.688zm14.219 24.171a5.688 5.688 0 110-11.375 5.688 5.688 0 010 11.375zm0-8.53a2.843 2.843 0 100 5.686 2.843 2.843 0 000-5.687z"/><path d="M13.884 67.331l-2.159 1.851 8.532 9.954 2.159-1.85-8.532-9.955zM40.935 4.312L28.137 7.154l.616 2.776 12.798-2.842-.616-2.776zM7.163 29.52L4.315 40.9l2.759.69 2.848-11.38-2.759-.69z"/><path d="M9.953 31.281a5.687 5.687 0 110-11.374 5.687 5.687 0 010 11.374zm0-8.531a2.844 2.844 0 100 5.687 2.844 2.844 0 000-5.687zm14.219-7.11a5.687 5.687 0 110-11.373 5.687 5.687 0 010 11.374zm0-8.53a2.844 2.844 0 100 5.686 2.844 2.844 0 000-5.687zM5.688 51.188a5.688 5.688 0 110-11.376 5.688 5.688 0 010 11.376zm0-8.532a2.844 2.844 0 100 5.687 2.844 2.844 0 000-5.687z"/><path d="M20.256 11.866l-8.535 9.951 2.158 1.852 8.535-9.951-2.158-1.852zm11.729 46.601l-1.41 2.47 9.95 5.685 1.41-2.47-9.95-5.685zM28.438 38.39h-2.844v14.22h2.843V38.39zm3.19-2.325l-1.65 2.303 9.905 7.092 1.65-2.303-9.905-7.092zm26.696-.525l-9.904 7.092 1.649 2.304 9.905-7.093-1.65-2.303zM46.922 9.953h-2.844v11.375h2.844V9.953zm3.411 15.75l-1.12 2.614 9.958 4.268 1.12-2.614-9.958-4.268zm8.681 32.795l-9.951 5.686 1.41 2.469 9.952-5.685-1.411-2.47zm9.874-.036l-1.272 2.544 8.534 4.267 1.272-2.543-8.534-4.268zm-46.767-.02l-8.533 4.267 1.272 2.544 8.533-4.268-1.272-2.543zM65.406 38.39h-2.844v14.22h2.844V38.39zM14.852 27.176l-1.272 2.543 8.533 4.268 1.272-2.544-8.533-4.267z"/></g><defs><clipPath id="azclip0"><path fill="#fff" d="M0 0h91v91H0z"/></clipPath></defs></symbol><symbol viewBox="0 0 7 10" id="altrix_triangle-right" xmlns="http://www.w3.org/2000/svg"><path d="M0 10l7-5-7-5v10z"/></symbol><symbol viewBox="0 0 448 512" id="altrix_twitter-square" xmlns="http://www.w3.org/2000/svg"><path d="M400 32H48C21.5 32 0 53.5 0 80v352c0 26.5 21.5 48 48 48h352c26.5 0 48-21.5 48-48V80c0-26.5-21.5-48-48-48zm-48.9 158.8c.2 2.8.2 5.7.2 8.5 0 86.7-66 186.6-186.6 186.6-37.2 0-71.7-10.8-100.7-29.4 5.3.6 10.4.8 15.8.8 30.7 0 58.9-10.4 81.4-28-28.8-.6-53-19.5-61.3-45.5 10.1 1.5 19.2 1.5 29.6-1.2-30-6.1-52.5-32.5-52.5-64.4v-.8c8.7 4.9 18.9 7.9 29.6 8.3a65.447 65.447 0 01-29.2-54.6c0-12.2 3.2-23.4 8.9-33.1 32.3 39.8 80.8 65.8 135.2 68.6-9.3-44.5 24-80.6 64-80.6 18.9 0 35.9 7.9 47.9 20.7 14.8-2.8 29-8.3 41.6-15.8-4.9 15.2-15.2 28-28.8 36.1 13.2-1.4 26-5.1 37.8-10.2-8.9 13.1-20.1 24.7-32.9 34z"/></symbol><symbol viewBox="0 0 576 512" id="altrix_youtube" xmlns="http://www.w3.org/2000/svg"><path d="M549.655 124.083c-6.281-23.65-24.787-42.276-48.284-48.597C458.781 64 288 64 288 64S117.22 64 74.629 75.486c-23.497 6.322-42.003 24.947-48.284 48.597-11.412 42.867-11.412 132.305-11.412 132.305s0 89.438 11.412 132.305c6.281 23.65 24.787 41.5 48.284 47.821C117.22 448 288 448 288 448s170.78 0 213.371-11.486c23.497-6.321 42.003-24.171 48.284-47.821 11.412-42.867 11.412-132.305 11.412-132.305s0-89.438-11.412-132.305zm-317.51 213.508V175.185l142.739 81.205-142.739 81.201z"/></symbol></svg>